<?xml version="1.0" encoding="UTF-8"?>
<svg version="1.1" viewBox="0 0 2000 2000" width="1280" height="1280" xmlns="http://www.w3.org/2000/svg">
<path transform="translate(1099,904)" d="m0 0h114l100 1 15 1v294l-2 29-4 24-6 26-8 27-6 16-13 29-8 15-11 18-9 13-9 12-8 10-12 14-17 17-8 7-16 13-17 12-18 11-17 9-21 9-19 7-36 9-21 3-11 1h-44l-24-3-25-5-21-6-19-7-26-12-21-12-22-15-17-14-13-12-17-17-7-8-12-15-12-17-12-20-9-16-11-24-8-21-9-29-6-29-4-26-1-11-1-23v-35l1-1 77-1h150l1 9 1 25 4 27 5 15 9 17 11 13 10 9 13 8 22 8 7 1h19l15-4 16-7 12-9 12-12 7-10 8-16 5-15 3-18zm204 14-2 1-1 279-2 28-4 25-9 35-9 25-8 18-8 16-10 18-14 20-10 13-12 14-21 21-14 11-10 8-17 11-18 10-16 8-27 10-32 8-21 3-13 1h-30l-24-2-26-5-24-7-27-11-23-12-21-14-14-11-13-11-9-9-5-4-7-8-10-11-12-16-4-6-5-7-4-7-10-18-8-16-8-19-6-15-9-33-4-21-3-31-1-40-2-2h-13v37l3 31 4 22 4 19 7 24 11 28 10 22 12 21 12 18 12 16 9 10 9 11 18 18 8 7 18 14 16 11 17 10 19 10 15 6 30 10 24 5 22 3 13 1h24l25-2 23-4 24-6 27-10 25-12 17-10 16-11 14-11 14-12 13-12 7-8 11-12 13-17 16-24 12-22 9-19 10-26 8-26 7-35 3-23 1-12 1-65v-216l-1-5-11-1zm-54 1-2 1-1 279-2 25-5 23-4 17-9 25-5 12-11 21-6 10-4 6-10 14-9 11v2h-2l-7 8-10 10-11 9-13 10-15 10-25 13-19 7-20 6-28 4-33 1-22-2-24-5-24-8-26-12-10-7-14-9-10-8-14-12-13-13-9-11-12-16-4-6-12-21-12-24-4-13-4-10-6-24-4-23-2-23v-29l-1-1h-13l-1 6v30l3 28 4 21 8 28 8 21 4 10 4 6 5 11 10 17 7 9 6 8 11 14 6 7 5 5h2l2 4 4 4h2l1 3 11 9 16 12 18 11 19 10 20 8 23 7 23 4 13 1h34l19-2 23-5 21-6 23-10 20-11 16-11 14-11 13-12 17-17 11-14 10-14 8-13 7-12 8-17 8-19 9-30 5-25 2-16 2-30v-265l-4-1zm25 0-1 286-5 37-5 23-8 25-11 27-12 22-11 17-12 17-8 10-16 17-13 12-14 11-13 9-16 9-21 11-24 9-23 6-26 4-15 1h-22l-24-2-22-4-21-6-16-6-25-12-16-10-14-10-16-13-12-11-3-3h-2l-2-4-8-9-11-14-7-10-9-14-7-11-11-22-4-11-4-8-6-20-3-8-4-20-4-30-2-19-1-28-7-2-7 1v36l2 22 3 18 5 25 6 19 4 11 3 9 9 21 11 20 9 14 6 9 9 12 14 17 24 24 14 11 13 10 21 13 26 13 22 8 32 8 23 3h47l27-4 28-7 26-10 20-10 24-15 14-11 13-11 8-7 12-12 9-11 11-13 11-16 8-13 9-17 8-16 6-14 10-31 7-31 3-20 1-12v-289zm-160 1-1 5v219l-1 55-5 21-4 13-9 17-9 12-4 6-11 9-10 7-17 8-13 4-13 2h-17l-16-3-20-8-10-6-10-9-8-7-9-12-8-14-5-11-6-22-2-14-1-25-1-1h-11l-1 1v29l2 17 7 23 8 16 8 13 8 10 11 11 14 11 12 7 15 6 18 4 7 1h14l19-3 17-6 19-10 24-22 10-14 8-14 7-19 4-14 2-16v-277zm25 0-1 275-3 24-5 16-8 20-9 15-13 16-11 11-11 8-15 9-15 6-13 4-12 2h-29l-15-3-17-6-14-7-11-7-5-5h-2v-2l-6-4-9-10-1-2h-2l-2-5-7-10-7-12-7-17-5-14-3-23-1-32-7-1-8 1-1 13 2 26 3 17 6 22 7 15 5 10 6 9 11 14 9 10 7 7 13 10 13 8 15 7 20 6 20 3h15l21-3 15-4 17-7 16-10 12-9 6-5 7-8 9-10 7-10 10-17 8-20 4-13 4-16 2-21v-270l-1-1zm28 0-1 1-1 276-2 20-4 16-5 17-7 15-5 10-7 11-10 14-6 6v2l-3 1-6 7-11 9-10 7-14 8-16 7-21 6-13 2h-34l-20-4-19-7-21-11-15-11-5-4-5-5-13-14-11-16-9-15-7-16-3-8-7-24-3-23-1-30-9-1-4 1-1 9v18l3 29 4 16 6 19 6 14 8 14 11 17 11 13 11 12h2l1 3 11 9 15 10 14 8 23 9 18 4 9 1h34l25-4 18-6 19-9 15-10 12-9 4-5 8-7 8-8 11-14 9-15 10-19 9-25 5-25 2-16 1-27v-252l-1-1zm27 0-1 1-1 282-5 31-5 18-10 25-8 15-8 13-12 16-1 3-4 2v2l-4 2v2l-3 1-5 5-11 10-13 9-15 9-24 10-19 5-19 3-11 1h-11l-16-1-24-5-18-6-16-8-11-6-13-9-11-9-8-7-6-7h-2l-2-4-6-7-10-13-6-11-10-19-4-10-5-13-5-21-4-25-1-9-1-28-1-1h-11l-2 1v26l1 19 4 22 6 24 6 15 6 14 8 14 10 16 4 6h2l2 4 8 10 9 10 8 7 9 8 13 9 18 11 17 8 22 7 23 4 10 1h26l22-3 20-5 20-8 21-11 18-13 13-12 19-19 11-15 9-13 7-14 4-9 7-15 6-21 5-21 2-18 1-13v-261l-1-11zm26 0-1 83v191l-3 32-5 22-8 25-10 23-6 9-3 7-7 11-11 14-7 9-17 17-14 11-12 9-23 12-11 5-19 7-19 4-25 3h-16l-24-2-23-5-12-4-19-8-19-10-19-14-10-8-20-20-11-15h-2l-1-4-7-10-8-14-5-11-7-14-9-27-3-12-2-15-1-3-2-23v-27l-2-2h-12l-1 1v33l2 21 2 7 1 11 7 26 7 21 9 17 8 16 6 9 10 14 11 13 7 8 12 12h2v2l11 9 15 11 14 8 16 8 11 5 23 7 19 4 20 2h25l27-3 19-5 20-7 22-10 17-11 13-10 16-14 17-17 9-11 6-9 7-10 11-19 7-16 5-12 8-24 2-12 2-7 4-30 1-23v-253l-1-8z" fill="#BFF14F"/>
<path transform="translate(1e3 411)" d="m0 0h18l27 2 22 4 28 7 22 8 17 7 19 10 18 11 14 10 13 10 14 12 14 13 7 8 10 11 13 17 11 16 10 16 9 16 12 26 7 18 9 30 7 33 4 30 2 32v11l-1 1-28 1h-200l-1-1-1-21-5-24-6-15-6-11-10-13-11-10-13-8-17-7-16-2h-10l-15 2-19 7-14 10-10 10-10 14-8 15-4 13-4 26-1 263-1 1-141-1-69-1-18-1v-260l1-26 3-27 5-28 10-35 9-24 8-18 8-16 9-16 8-12 14-20 12-14 7-8 11-12 9-9 11-9 12-10 20-14 19-11 23-12 17-7 19-6 24-6 24-4zm-10 13-27 3-29 6-30 10-29 13-23 14-12 8-13 10-14 12-21 21-11 12-10 13-10 14-12 19-10 18-7 16-5 11-8 21-8 28-6 33-3 26-1 16v257h12l2-1 1-94v-161l1-21 5-36 9-35 8-23 13-28 10-19 16-24 13-17 9-10 7-8 16-16 11-9 10-8 18-12 15-9 15-8 28-11 16-5 31-6 18-2h46l24 3 22 5 20 6 22 9 16 8 14 8 18 12 16 12 16 15 8 7 10 11 9 11 7 9 11 16 10 16 8 14 12 27 11 33 7 27 4 27 3 37 1 3h13v-19l-3-30-6-34-9-32-8-21-7-16-13-25-11-18-12-17-8-10-12-14-24-24-11-9-14-11-20-13-18-10-24-11-30-10-27-6-20-3-11-1zm6 29-24 2-26 5-24 7-22 9-21 11-18 11-16 12-11 9-13 12-16 17-8 9-11 15-7 10-6 11-10 18-8 16-8 20-7 22-6 26-5 33-1 11v262l1 4h12l1-1 1-256 4-38 2-11 2-12 2-10 4-10 4-13 11-27 12-23 11-17 7-10 11-14 9-10 12-13 14-12 18-14 18-11 21-11 21-8 26-8 26-4 13-1h34l26 3 22 5 27 9 25 12 17 10 19 14 13 11 9 9 8 7 10 11 8 10 10 13 8 13 3 5 9 17 3 5 6 16 4 8 7 23 4 13 3 16 4 26 2 30 1 1h13v-23l-3-27-6-29-6-22-7-19-5-11-7-17-6-10-6-11-9-13-4-5-4-7-10-11-10-13-8-7-15-15-10-8-12-9-14-9-15-9-21-10-22-8-28-7-16-3-23-2zm-8 30-19 2-19 4-23 7-23 10-20 11-12 8-16 12-7 7-8 7-15 15-11 14-7 10-7 9-7 13-4 6-8 16-5 13-6 14-8 27-4 18-4 37v261h14l1-117v-143l3-31 6-25 5-18 6-15 8-18 6-12 9-15 11-16 13-16 11-12 9-9 11-9 15-11 19-11 16-8 26-10 23-5 15-2 13-1h29l29 4 20 5 21 8 16 8 18 10 18 13 14 12 17 17 1 2h2l2 4 7 9 8 11 7 11 8 13 7 15 7 17 9 27 3 12 3 16 1 3 2 22 1 18 2 1h9l3-1v-16l-2-21-4-26-8-28-4-13-4-9-7-16-10-19-7-10-6-10-9-12h-2l-2-5-11-12-16-16-14-11-12-9-14-9-21-11-11-5-24-8-26-6-16-2zm4 29-24 3-21 5-19 7-16 7-19 11-18 13-10 9-4 3v2l-4 2v2l-4 2-7 8-1 3h-2l-8 10v2h-2l-4 7-2 5h-2l-6 10v2h-2l-4 8-7 15-5 10-10 30-4 18-4 24-1 13v260l1 1h13l1-1v-247l1-21 5-34 7-21 5-14 9-21 5-8 6-10 7-10 8-11 11-13 16-16 16-12 14-9 16-9 24-9 18-5 27-4h31l26 4 19 5 16 6 16 8 16 9 16 12 14 12 11 12 7 8 11 15 4 6 5 8 5 9 8 16 5 14 3 9 5 16 4 20 2 17 2 22h14l1-8-3-26-2-15-3-14-3-13-4-9-4-13-5-11-8-16-4-6-6-11-6-8-8-11-9-11-5-6-6-5-5-5-17-14-15-11-18-10-20-9-22-7-12-3-27-3zm4 29-25 3-18 4-25 10-21 12-14 10-8 7-4 3v2l-4 2-8 8-9 11-10 12-10 16-5 10v3h-2l-4 8-5 13-3 7-6 22-4 18-2 22v259l2 1h10l2-1 1-210v-44l2-20 4-19 3-14 9-25 8-15 3-6 9-14 11-14 11-13 8-7 9-8 15-10 16-9 16-7 24-7 12-2 11-1h21l24 3 21 5 17 7 14 7 18 12 11 9 13 13 5 4 6 8 8 10 5 9 5 8 4 8 3 4 3 6 4 13 3 6 6 23 4 28 1 13 1 3h12l1-1v-18l-2-19-2-5-4-18-4-16-8-18-4-10-4-5-3-7-7-11-7-10-2-3h-2l-2-4-9-11-14-14-16-12-18-11-16-8-16-6-13-4-15-3-18-2zm-1 29-25 4-17 5-20 9-20 12-8 7-8 6v2l-4 2-7 8-1 3h-2l-4 6v2l-4 2v2h-2l-9 15-5 9-7 14-6 17-3 7-4 20-3 26-1 34 1 12v193l1 17h8l5-1 1-249 2-26 6-24 8-21 8-16 11-17 12-14 2-4h2l5-5 11-10 10-7 12-7 19-8 17-5 13-2 26-1 20 2 21 6 18 8 15 9 11 8 12 11h2l2 4 10 11 12 18 8 16 6 13 7 25 3 16 2 22 1 1h12l1-1v-14l-5-33-5-17-4-10-2-6-5-8-4-10-7-10-7-11-11-13-16-16-11-8-13-8-11-6-19-8-19-5-21-3zm1 29-22 4-18 6-21 11-11 8-13 11v2h-2l-7 8-10 13-9 15-7 15-5 11-7 32-1 9-1 64v53l1 142h15l1-258 3-21 4-15 9-22 11-17 11-14 8-8 11-9 13-8 15-7 16-5 10-2 23-1 17 2 18 5 14 6 13 8 10 8 10 9 9 9 10 15 7 12 9 23 5 22 2 21 1 1h13l1-1-1-17-3-16-5-21-3-7-5-11-6-12-8-12-11-14-11-11-11-9-13-9-19-9-20-6-12-2-11-1zm6 29-16 2-17 5-16 8-10 6-12 11-13 13-7 11-6 10-10 25-4 18-1 12v253l1 1h12l1-254 4-22 5-15 11-21 8-10 11-12 12-10 16-8 19-5 9-1h16l19 3 15 6 12 7 13 10 7 7 9 12 11 20 6 21 3 15 1 10 1 1h11l1-1v-12l-3-18-7-22-8-16-9-14-11-13-8-7-14-10-16-8-18-6-17-2z" fill="#BFF14F"/>
<path transform="translate(1135,805)" d="m0 0 11 1 10 5 5 5 4 5 4 10 1 11-3 12-6 9-7 6-7 3-5 1h-11l-10-3-8-6-6-9-3-8v-15l4-11 9-10 10-5zm-4 15-6 4-5 10v12l5 8 6 4h11l5-3 4-5 2-6v-11l-3-7-6-5-2-1z" fill="#FDFDFD"/>
<path transform="translate(1226,829)" d="m0 0 10 3 4 3 4-1 3-3 3-1h9l6 3 4 5 1 2 1 30-3 2h-9l-3-1-1-27-2-1h-9l-1 7-1 21-5 1-9-1-1-27-2-1h-10v28l-6 1-8-1-1-5v-33l1-2h10l9 1z" fill="#FCFCFB"/>
<path transform="translate(728,1070)" d="m0 0h10l8 2 1-1h12l1 1 1 10v21l-1 8-1 1h-9l-8-1-4 2h-9l-8-3-6-7-2-5v-13l4-8 6-5zm6 12-5 4-1 2v8l4 4 7 1 5-3 2-3v-7l-4-5-2-1z" fill="#FCFCFC"/>
<path transform="translate(1295,830)" d="m0 0h10l9 3 7 6 3 6 1 7-2 8-4 6-5 4-9 3h-12l-8-3-7-8-2-5v-11l4-8 6-5zm2 12-4 2-2 3v9l4 4 7 1 5-3 2-2v-9l-4-4-2-1z" fill="#FDFDFD"/>
<path transform="translate(858,1070)" d="m0 0h11l7 3 5 5 3 5 1 10-1 1h-16l-12 1 2 4 4 2 8-1 5-4 2 2 6 2-1 5-7 6-7 2h-11l-8-4-6-7-2-5v-12l6-9 7-5zm2 9-4 4 1 3h12l2-3-4-4z" fill="#FCFCFC"/>
<path transform="translate(693,1046)" d="m0 0h13l1 1v51l-3 8-5 5-7 2h-9l-9-3-2-2 1-8 3-5 5 2 7 1 3-1 1-50z" fill="#FCFCFA"/>
<path transform="translate(763,1071)" d="m0 0h16l3 3 7 17 2 1 3-9 5-12h17l-2 5-8 16-10 18-3 2h-6l-5-5-15-28z" fill="#FCFCFC"/>
<path transform="translate(1177,804)" d="m0 0h14v67l-7 1-7-1-1-1v-65z" fill="#FCFCFB"/>
<path transform="translate(917,1070)" d="m0 0 9 1 1 3-4 8-1 1-14 1-1 3-1 24-8 1h-5l-2-4 1-37h12l2 1v2l5-3z" fill="#FCFCFB"/>
<path transform="translate(820,1071)" d="m0 0h14v40l-8 1-7-1v-23z" fill="#FCFCFA"/>
<path transform="translate(824,1046)" d="m0 0 7 1 4 4v7l-4 4h-8l-5-5v-5l4-5z" fill="#FDFDFD"/>
<path transform="translate(1258,959)" d="m0 0 2 1z" fill="#BFF14F"/>
</svg>
